<?xml version="1.0" standalone="no"?>
<!DOCTYPE svg PUBLIC "-//W3C//DTD SVG 20010904//EN"
 "http://www.w3.org/TR/2001/REC-SVG-20010904/DTD/svg10.dtd">
<svg version="1.0" xmlns="http://www.w3.org/2000/svg"
 width="789.000000pt" height="720.000000pt" viewBox="0 0 789.000000 720.000000"
 preserveAspectRatio="xMidYMid meet">

<g transform="translate(0.000000,720.000000) scale(0.100000,-0.100000)"
fill="#3a3f40" stroke="none">
<path d="M3160 7191 c0 -4 -32 -30 -72 -56 -88 -59 -154 -120 -221 -205 -28
-36 -54 -67 -57 -70 -14 -12 -99 -127 -109 -147 l-11 -22 -628 -4 c-646 -4
-686 -6 -760 -46 -11 -6 -28 -11 -37 -11 -9 0 -37 -10 -63 -21 -26 -12 -65
-30 -87 -40 -22 -10 -62 -32 -90 -48 -27 -17 -57 -34 -65 -38 -21 -10 -112
-74 -129 -91 -8 -7 -30 -24 -50 -37 -65 -41 -213 -188 -286 -285 -86 -114
-172 -241 -195 -285 -5 -11 -14 -27 -20 -35 -25 -40 -93 -155 -101 -174 -5
-12 -15 -30 -21 -41 -67 -103 -128 -227 -128 -257 0 -30 30 -75 66 -99 24 -16
49 -19 144 -19 127 -1 378 -22 397 -33 8 -5 6 -21 -8 -60 -11 -28 -43 -122
-71 -207 -28 -85 -57 -169 -65 -187 -7 -17 -13 -39 -13 -48 0 -9 -5 -26 -12
-38 -6 -12 -15 -38 -19 -57 -5 -19 -15 -62 -23 -95 -15 -60 -54 -225 -82 -342
-8 -34 -14 -74 -14 -90 0 -15 -7 -73 -15 -128 -20 -141 -41 -307 -60 -470 -8
-77 -22 -194 -30 -260 -8 -66 -15 -133 -15 -150 0 -16 -6 -84 -15 -150 -31
-253 -38 -313 -45 -405 -4 -52 -13 -142 -19 -200 -11 -106 -27 -261 -56 -555
-9 -88 -22 -221 -30 -295 -8 -74 -17 -171 -20 -215 -3 -44 -10 -81 -15 -83
-17 -6 -12 -89 5 -96 8 -3 15 -16 15 -29 0 -27 64 -97 89 -97 9 0 43 -13 76
-29 75 -36 173 -81 245 -114 53 -24 106 -48 253 -116 198 -91 296 -137 372
-171 75 -34 150 -68 220 -100 39 -18 98 -45 133 -61 34 -16 92 -43 130 -60 37
-17 96 -45 132 -61 36 -16 82 -38 103 -49 21 -10 42 -19 47 -19 5 0 32 -14 60
-30 28 -17 60 -30 71 -30 11 0 22 -7 25 -15 5 -12 26 -15 99 -15 56 0 95 4 97
10 2 6 55 15 118 20 63 5 153 13 200 19 154 19 283 33 380 41 52 4 136 12 185
18 162 21 278 33 385 42 58 4 141 13 185 19 44 5 152 17 240 26 88 9 219 22
290 30 72 8 200 22 285 30 85 9 214 22 285 30 72 8 200 22 285 30 85 9 214 22
285 30 72 8 200 22 285 30 85 9 214 22 285 30 72 8 200 22 285 30 85 9 214 22
285 30 72 8 200 22 285 30 85 9 214 22 285 30 72 8 175 19 230 25 55 6 150 15
210 20 61 6 134 15 164 20 30 6 80 10 111 10 51 0 60 3 92 35 l35 35 6 197 c4
108 7 258 7 335 0 85 4 138 10 138 13 0 14 1347 1 1352 -5 2 -13 102 -16 223
-4 121 -13 278 -21 348 -8 71 -14 152 -14 180 0 29 -7 90 -15 137 -8 47 -22
130 -30 185 -21 130 -43 254 -60 335 -7 36 -21 101 -30 145 -9 44 -23 106 -31
137 -8 32 -14 67 -14 79 0 12 -6 45 -14 73 -15 51 -35 131 -61 236 -7 30 -19
75 -26 100 -6 25 -18 72 -25 105 -8 33 -21 87 -29 120 -9 33 -19 76 -24 95
-11 43 -53 191 -95 330 -8 25 -21 68 -29 95 -8 28 -22 73 -30 100 -8 28 -22
73 -30 100 -8 28 -22 73 -30 100 -8 28 -22 73 -30 100 -8 28 -22 73 -30 100
-8 28 -22 74 -30 103 -9 29 -23 76 -32 105 -9 28 -20 69 -26 90 -5 21 -13 45
-18 55 -14 28 -33 85 -40 120 -3 18 -21 48 -40 67 l-34 35 -621 0 -621 0 -33
49 c-17 28 -32 53 -32 56 0 19 -191 253 -263 323 l-86 82 -1081 0 c-594 0
-1080 -4 -1080 -9z m2126 -283 c48 -51 174 -211 174 -222 0 -3 13 -24 28 -48
32 -48 47 -77 87 -161 44 -98 94 -271 95 -330 0 -21 7 -82 15 -135 34 -230 49
-893 27 -1217 l-7 -110 -900 0 -900 0 0 35 c1 19 7 125 14 235 9 153 10 257 2
445 -17 379 -29 552 -40 590 -6 19 -11 52 -11 73 0 76 -62 366 -106 492 -8 23
-14 46 -14 53 0 11 -33 89 -78 182 -9 19 -28 53 -41 75 -40 63 -50 83 -43 89
3 3 375 6 827 6 l821 0 50 -52z m-1960 -30 c35 -33 64 -65 64 -69 0 -4 14 -28
31 -53 17 -25 27 -50 24 -56 -8 -13 -442 -14 -449 -1 -8 12 62 100 133 170 92
90 112 91 197 9z m220 -436 c24 -15 96 -374 110 -552 39 -462 43 -787 14
-1174 -12 -158 -12 -172 5 -203 10 -18 33 -42 50 -53 32 -20 54 -20 1075 -20
1021 0 1043 0 1075 20 58 36 63 58 75 355 17 435 10 819 -21 1125 -6 58 -15
146 -20 195 -9 97 -24 168 -45 228 -8 20 -14 49 -14 62 l0 25 497 -2 497 -3
12 -25 c17 -36 38 -101 73 -225 25 -86 45 -155 57 -195 7 -25 23 -76 34 -115
11 -38 27 -91 35 -118 8 -26 21 -71 30 -100 24 -81 44 -148 59 -197 14 -46 31
-104 60 -200 29 -95 47 -164 55 -205 4 -22 13 -60 20 -85 7 -25 19 -70 26
-100 7 -30 19 -75 26 -100 6 -25 18 -72 25 -105 8 -33 21 -87 30 -120 8 -33
19 -81 24 -106 4 -25 13 -64 18 -85 6 -21 17 -74 26 -117 40 -199 48 -236 62
-289 8 -32 14 -70 14 -85 0 -16 6 -64 14 -108 43 -235 60 -383 76 -665 30
-540 33 -691 27 -1288 -8 -712 -16 -956 -31 -977 -7 -10 -37 -17 -86 -20 -70
-5 -192 -18 -435 -46 -55 -6 -143 -15 -195 -19 -52 -4 -135 -12 -185 -18 -165
-21 -289 -34 -385 -42 -52 -4 -135 -12 -185 -18 -165 -21 -289 -34 -385 -42
-52 -4 -135 -12 -185 -18 -165 -21 -289 -34 -385 -42 -52 -4 -135 -12 -185
-18 -165 -21 -289 -34 -385 -42 -52 -4 -135 -12 -185 -18 -165 -21 -289 -34
-385 -42 -52 -4 -135 -12 -185 -18 -165 -21 -289 -34 -385 -42 -52 -4 -135
-12 -185 -18 -165 -21 -289 -34 -385 -42 -52 -4 -135 -12 -185 -18 -320 -40
-464 -52 -488 -39 -17 8 -18 18 -12 115 24 423 34 2190 15 2562 -24 450 -35
583 -66 795 -8 55 -14 115 -14 134 0 31 -7 85 -45 341 -15 99 -33 224 -60 420
-22 156 -43 290 -60 380 -7 41 -21 120 -30 175 -9 55 -22 136 -30 180 -7 44
-21 125 -30 180 -38 230 -53 318 -89 528 -8 45 -22 127 -31 182 -9 55 -20 117
-25 137 -5 25 -4 39 4 42 19 8 1770 6 1782 -2z m-2376 -137 c0 -7 -41 -96 -90
-197 -96 -194 -115 -232 -138 -288 -8 -19 -18 -42 -23 -51 -4 -9 -26 -61 -49
-115 -120 -281 -118 -278 -172 -282 -61 -5 -321 18 -333 29 -6 6 -2 21 10 42
31 52 64 111 72 127 15 32 99 168 138 222 22 31 58 82 80 113 86 122 309 320
434 386 23 11 44 25 47 30 7 12 24 1 24 -16z m428 -365 c12 -52 28 -140 37
-195 9 -55 22 -136 30 -180 7 -44 21 -125 30 -180 9 -55 23 -134 31 -175 7
-42 14 -86 14 -99 0 -13 6 -53 14 -90 26 -121 46 -238 46 -267 0 -16 6 -65 14
-109 8 -44 22 -132 30 -195 9 -63 24 -164 32 -225 9 -60 22 -149 30 -196 8
-48 14 -104 14 -125 0 -21 6 -81 14 -134 17 -108 41 -340 56 -540 21 -272 31
-1172 20 -1932 -10 -735 -14 -827 -34 -840 -6 -4 -25 25 -47 70 -20 42 -66
138 -102 212 -115 240 -188 393 -242 505 -29 61 -88 182 -130 270 l-77 160 5
125 c11 255 28 621 38 825 6 116 15 318 19 450 9 264 24 606 41 930 6 116 15
318 19 450 9 267 25 617 41 920 5 110 12 283 15 385 5 175 13 307 19 285 2 -5
12 -53 23 -105z m-276 -116 c-2 -109 -8 -262 -13 -339 -5 -77 -14 -261 -19
-410 -10 -297 -24 -628 -41 -950 -6 -115 -15 -318 -19 -450 -9 -263 -24 -607
-41 -925 -6 -113 -15 -324 -20 -470 -9 -268 -25 -560 -31 -565 -5 -4 -480
-287 -503 -300 -20 -10 -83 -49 -120 -73 -11 -6 -29 -17 -40 -22 -11 -6 -33
-19 -50 -30 -16 -11 -39 -24 -50 -29 -11 -5 -37 -20 -57 -34 -20 -14 -39 -23
-42 -19 -10 9 -7 114 4 175 6 30 15 109 20 174 5 65 14 163 20 218 10 102 27
266 55 550 20 200 44 426 89 825 9 74 18 158 20 185 9 101 77 623 92 705 20
109 43 211 69 305 8 28 21 79 30 115 10 36 22 76 27 90 6 14 14 39 18 55 5 17
14 46 21 65 6 19 17 51 24 70 7 19 20 60 29 90 10 30 24 73 33 95 8 22 22 58
30 80 9 22 19 49 24 60 12 30 49 125 66 170 8 22 21 54 28 70 7 17 20 48 30
70 9 22 22 54 30 70 7 17 21 48 30 70 10 22 21 47 26 56 4 9 26 61 49 115 69
163 162 345 174 341 8 -3 10 -63 8 -203z m-91 -4381 c5 -15 34 -77 63 -137 54
-111 129 -269 246 -511 34 -71 87 -181 117 -243 30 -62 52 -119 49 -127 -6
-17 -13 -15 -126 38 -121 56 -298 138 -385 177 -22 10 -69 32 -105 48 -36 17
-90 41 -120 55 -30 14 -86 39 -125 57 -38 18 -99 46 -135 62 -36 17 -99 46
-140 64 -100 46 -145 71 -144 81 0 7 279 181 344 215 14 7 41 24 60 37 19 12
44 27 55 32 11 5 34 18 50 29 17 11 39 24 50 30 11 5 29 16 40 22 166 106 189
115 206 71z"/>
<path d="M4356 5951 c-36 -24 -66 -69 -66 -101 0 -32 30 -77 66 -101 27 -18
55 -19 474 -19 419 0 447 1 474 19 36 24 66 69 66 101 0 32 -30 77 -66 101
-27 18 -55 19 -474 19 -419 0 -447 -1 -474 -19z"/>
<path d="M4296 5381 c-36 -24 -66 -69 -66 -101 0 -32 30 -77 66 -101 28 -18
57 -19 564 -19 507 0 536 1 564 19 36 24 66 69 66 101 0 32 -30 77 -66 101
-28 18 -57 19 -564 19 -507 0 -536 -1 -564 -19z"/>
</g>
</svg>
